<svg width="78" height="57" viewBox="0 0 78 57" fill="none" xmlns="http://www.w3.org/2000/svg">
<path d="M28.6135 30.8215C28.9229 30.4533 29.1745 30.1415 29.4405 29.8422C29.5958 29.6526 29.772 29.4806 29.9658 29.3293C30.3002 29.0903 30.3284 28.8417 30.2029 28.4532C28.4732 23.1003 26.7645 17.7407 25.0365 12.3385C25.067 12.3191 25.1158 12.2918 25.1605 12.2589C30.0328 8.66958 34.9043 5.079 39.7747 1.48717C39.7999 1.46116 39.8301 1.44042 39.8636 1.42619C39.8971 1.41197 39.9331 1.40454 39.9696 1.40436C40.006 1.40418 40.0421 1.41125 40.0757 1.42515C40.1093 1.43905 40.1398 1.45948 40.1652 1.48524C40.8631 2.00203 41.5715 2.50493 42.2766 3.0122C42.3598 3.07206 42.4457 3.12822 42.5435 3.19508C43.3502 2.43709 44.0123 1.53507 45.0456 0.976807C45.0208 1.07708 45.01 1.14449 44.9874 1.20783C44.7427 1.89581 44.5033 2.58577 44.2456 3.26902C44.2241 3.30595 44.2104 3.3468 44.2053 3.3891C44.2002 3.43141 44.2039 3.47429 44.2161 3.51516C44.2283 3.55603 44.2487 3.59404 44.2762 3.62688C44.3037 3.65972 44.3376 3.68671 44.376 3.70622C48.0972 6.43884 51.8156 9.17512 55.5312 11.9151C55.6048 11.9508 55.6613 12.0136 55.6884 12.0901C55.7155 12.1665 55.711 12.2504 55.6759 12.3236C53.7156 18.4178 51.7601 24.5136 49.8095 30.6109C49.7872 30.6805 49.7597 30.7486 49.7332 30.8215H28.6135ZM42.4442 3.43332C41.6905 2.88566 40.9506 2.36307 40.2305 1.81525C40.1965 1.7795 40.1553 1.75109 40.1096 1.73184C40.0639 1.71258 40.0147 1.70288 39.965 1.70336C39.9153 1.70383 39.8663 1.71447 39.821 1.7346C39.7757 1.75472 39.7351 1.7839 39.7018 1.82029C34.9942 5.29788 30.2817 8.76891 25.5642 12.2334C25.4706 12.2808 25.3996 12.3626 25.3666 12.4612C25.3335 12.5598 25.341 12.6672 25.3874 12.7604C26.7043 16.8291 28.0149 20.8997 29.3192 24.9724C29.68 26.0949 30.0416 27.2173 30.4039 28.3394C30.5166 28.6869 30.6169 28.7447 30.8717 28.5974C32.9407 27.4018 35.0128 26.2112 37.0717 24.9988C37.7779 24.5898 38.3943 24.0456 38.8847 23.3982C39.861 22.0975 40.2219 20.5913 40.291 19.0222C40.4054 16.4235 40.4544 13.822 40.5187 11.2213C40.5176 9.80715 40.675 8.39722 40.988 7.01723C41.285 5.75612 41.7761 4.54743 42.4442 3.43332ZM43.6666 5.38829C43.5844 5.9025 43.4702 6.35868 43.4454 6.81955C43.3697 8.23035 43.3492 9.64409 43.2687 11.0546C43.154 13.0625 43.0349 15.0711 42.8629 17.0748C42.6777 19.286 41.7915 21.3833 40.3304 23.0689C38.4016 25.3434 36.0735 27.2561 33.4577 28.7151C33.3141 28.8052 33.1756 28.9029 33.0426 29.0077C33.1353 29.0639 33.2419 29.0941 33.3507 29.0949C35.3219 29.14 37.2929 29.2048 39.2644 29.2219C41.4271 29.2407 43.5903 29.221 45.7532 29.2062C46.5967 29.2004 47.4399 29.1613 48.2834 29.1391C48.3709 29.1523 48.4603 29.1322 48.5335 29.083C48.6067 29.0337 48.6584 28.9589 48.678 28.8736C50.3535 23.6119 52.0367 18.3526 53.7276 13.0957C53.7803 12.9904 53.7909 12.8693 53.7571 12.7567C53.7234 12.644 53.6478 12.5481 53.5455 12.4881C50.7329 10.292 47.8516 8.18821 44.9014 6.17659C44.5136 5.91175 44.1096 5.67018 43.6666 5.38829Z" fill="#474242"/>
<path d="M0.15579 56.9149L0 56.8073C0.323888 56.3567 0.761523 55.9977 1.26942 55.7659C2.8751 55.0511 4.47412 54.3188 6.10273 53.6581C7.62741 53.0396 8.43438 51.9288 8.57168 50.3525C8.67145 49.2071 8.67301 48.0529 8.70351 46.9023C8.71625 46.4215 8.65651 46.369 8.19096 46.2045C7.14419 45.8247 6.01587 45.7182 4.9152 45.8953C4.16807 46.0154 3.69045 46.5083 3.69482 47.2518C3.69662 47.8503 3.74074 48.448 3.82687 49.0404C3.94419 49.8291 3.64981 50.3857 2.92571 50.8138C2.79175 50.3448 2.65268 49.8951 2.53576 49.4398C2.36471 48.8235 2.32165 48.1794 2.40917 47.5463C2.59502 46.3477 3.29984 45.6672 4.52364 45.5046C5.70365 45.3678 6.8988 45.4354 8.05527 45.7044C8.80204 45.8644 8.73058 45.9048 8.85621 45.1683C9.1975 43.1676 10.336 41.7896 12.1383 40.8962C12.1891 40.8714 12.2422 40.8516 12.297 40.8371C12.3415 40.8359 12.386 40.8403 12.4295 40.85C12.3265 41.0921 12.2443 41.3251 12.132 41.543C11.3277 43.1038 11.0621 44.7869 10.9741 46.5089C10.9766 46.5649 10.9913 46.6197 11.0171 46.6696C11.0429 46.7195 11.0793 46.7634 11.1237 46.7982C11.7163 47.2016 12.3286 47.577 12.9188 47.9836C14.1986 48.8306 15.3114 49.9008 16.2026 51.1417C16.2668 51.2342 16.3255 51.3308 16.3831 51.4276C16.9853 52.4396 16.82 53.2118 15.8556 53.9067C14.9837 54.5213 13.9355 54.8444 12.8643 54.8287C10.9391 54.8457 9.01342 54.8371 7.08807 54.8225C6.27216 54.8186 5.46305 54.9689 4.70437 55.2653C3.29989 55.8 1.87784 56.2898 0.463734 56.7998C0.377395 56.831 0.296276 56.8762 0.212727 56.9149H0.15579ZM11.0628 47.7697C10.9116 48.4617 10.7618 49.0993 10.6344 49.7412C10.4282 50.8765 9.81937 51.9022 8.91702 52.6346C8.47961 52.9936 8.04147 53.3517 7.60843 53.7158C7.56304 53.7703 7.52717 53.832 7.50228 53.8982C7.55948 53.9387 7.62336 53.969 7.69107 53.9879C8.05875 54.0198 8.4271 54.0537 8.79584 54.0626C10.349 54.1 11.903 54.1659 13.4555 54.1418C14.0588 54.1074 14.6532 53.9814 15.2177 53.7681C15.3232 53.7405 15.4213 53.6902 15.5048 53.6207C15.5882 53.5512 15.6551 53.4643 15.7004 53.3662C15.7458 53.2682 15.7686 53.1614 15.7672 53.0536C15.7657 52.9458 15.7401 52.8397 15.6921 52.7428C15.5408 52.3111 15.3274 51.9031 15.0585 51.5313C14.1057 50.2914 12.9912 49.1812 11.7441 48.2294C11.5384 48.0689 11.3107 47.9358 11.0628 47.7697Z" fill="#474242"/>
<path d="M47.9336 51.8314C48.3036 51.6715 48.6325 51.5322 48.959 51.3878C50.0915 50.8868 51.2595 50.5579 52.515 50.7371C52.8712 50.7841 53.2193 50.879 53.5494 51.019C54.3798 51.3853 54.5465 52.2269 53.9634 52.9156C53.2315 53.7347 52.2869 54.3408 51.2316 54.6684C50.4346 54.9475 49.5937 55.0841 48.7481 55.0717C47.6182 55.0596 47.068 54.5777 46.9084 53.4669C46.7439 52.1269 46.753 50.7717 46.9357 49.434C46.9698 49.1366 47.0146 48.8402 47.063 48.5447C47.0873 48.2701 47.2097 48.0129 47.4085 47.8193C47.6073 47.6258 47.8694 47.5084 48.1478 47.4882C49.7822 47.2377 51.4484 47.2712 53.0712 47.5873C53.4391 47.6664 53.5706 47.835 53.5907 48.2701C53.1358 48.2005 52.6899 48.14 52.2469 48.063C51.2856 47.8958 50.3309 47.6971 49.3425 47.7472C48.2682 47.8016 48.13 47.9056 47.924 48.9488C47.7547 49.7762 47.7206 50.625 47.823 51.463C47.8502 51.5884 47.8872 51.7116 47.9336 51.8314ZM49.8002 54.3021C50.9702 54.3021 52.0353 53.943 52.5079 53.1789C52.9736 52.4257 52.6004 51.4135 51.7528 51.2666C51.3247 51.1954 50.8859 51.2182 50.4678 51.3334C49.8114 51.546 49.1665 51.792 48.5358 52.0702C48.4042 52.1227 48.2787 52.189 48.1614 52.2679C48.0271 52.342 47.9244 52.4615 47.8721 52.6044C47.823 52.7653 47.823 52.8347 47.8721 53.0199C48.0423 53.4669 48.3013 53.9424 48.8073 54.1085C49.2711 54.2607 49.5312 54.3021 49.8002 54.3021Z" fill="#474242"/>
<path d="M27.4778 49.2843C27.9441 49.2119 28.4209 49.3152 28.8137 49.5739C28.8944 49.6199 28.9569 49.6916 28.991 49.7772C29.0251 49.8628 29.0289 49.9573 29.0016 50.0453C28.7888 51.0958 28.7431 52.1727 28.866 53.2371C29.4943 53.0318 30.0931 52.7473 30.6477 52.3907C31.6394 51.6838 32.6303 50.9759 33.6206 50.2671C33.7271 50.1911 33.835 50.117 33.9625 50.0278C34.1054 50.2582 34.2512 50.4658 34.3623 50.6901C34.371 50.7361 34.3696 50.7835 34.3581 50.8289C34.3466 50.8743 34.3254 50.9167 34.2958 50.9533C33.9575 51.3597 33.5314 51.6864 33.0488 51.9093C32.5914 52.1518 32.1348 52.3958 31.6085 52.6761C32.7117 53.718 33.9818 54.3311 35.3325 54.8053C35.1643 55.5179 34.6476 55.8163 33.9916 55.5006C33.1503 55.0959 32.3443 54.6192 31.526 54.1683C31.0797 53.9224 30.6445 53.6561 30.1925 53.4211C30.0671 53.3703 29.9284 53.3612 29.7973 53.3951C29.5861 53.4418 29.4001 53.5515 29.1776 53.5954C28.9006 53.6501 28.8212 53.8112 28.8064 54.064C28.7869 54.3972 28.7381 54.7288 28.6987 55.0911L27.6353 54.8827C27.5827 53.0116 27.5306 51.1607 27.4778 49.2843Z" fill="#474242"/>
<path d="M45.1431 54.6799C44.9852 54.849 44.7886 54.9784 44.5698 55.0573C44.351 55.1361 44.1163 55.1622 43.8852 55.1333C43.8305 55.1219 43.779 55.0988 43.7343 55.0655C43.6897 55.0322 43.653 54.9897 43.627 54.9408C43.4578 54.5782 43.3152 54.2036 43.1499 53.802C42.9579 53.8886 42.7852 53.9581 42.6203 54.0422C41.0638 54.8718 39.2669 55.1512 37.5275 54.8342C37.416 54.8127 37.3068 54.7811 37.2012 54.7399C36.3855 54.4304 36.1164 53.6602 36.6484 52.9783C37.011 52.511 37.433 52.0918 37.904 51.7309C38.8305 51.0544 39.9196 50.6284 41.0639 50.4949C41.6146 50.407 42.1784 50.5316 42.6387 50.8428C42.7973 50.9614 42.9847 51.0367 43.182 51.0611C43.3794 51.0856 43.5798 51.0583 43.7631 50.9821C43.845 50.9585 43.928 50.9393 44.012 50.9244C44.0668 51.2295 44.1268 51.5258 44.172 51.8243C44.228 52.194 44.2653 52.5666 44.3222 52.9362C44.3981 53.5897 44.686 54.2014 45.1431 54.6799ZM39.5781 54.4618C40.6407 54.415 41.6724 54.0946 42.5709 53.5325C42.7149 53.4558 42.8316 53.337 42.905 53.1925C42.9784 53.048 43.0049 52.8847 42.981 52.7248C42.9415 52.3919 42.854 52.0664 42.7212 51.758C42.6103 51.5433 42.4305 51.3709 42.2099 51.2678C41.5849 50.9775 40.8773 50.9099 40.2076 51.0766C39.2967 51.3126 38.5067 51.752 38.1149 52.652C37.7152 53.57 38.1673 54.3047 39.1707 54.4334C39.3021 54.4502 39.4355 54.4523 39.5781 54.4618Z" fill="#474242"/>
<path d="M25.2791 52.453C23.3964 52.7009 21.5499 52.9441 19.7133 53.1859C19.6926 53.3192 19.6993 53.4553 19.733 53.586C19.7667 53.7167 19.8267 53.8394 19.9094 53.9467C19.9922 54.054 20.0959 54.1437 20.2145 54.2106C20.3332 54.2775 20.4642 54.3201 20.5998 54.3359C22.124 54.6138 23.6909 54.5656 25.1947 54.1947C25.4995 54.1286 25.8081 54.0812 26.1188 54.0528C26.1764 54.0458 26.2501 54.0528 26.3035 54.1265C26.3035 54.1947 26.2453 54.268 26.1933 54.2939C26.0229 54.39 25.8411 54.4646 25.6521 54.5162C24.1323 54.8421 22.6083 55.1372 21.0388 55.0718C20.3396 55.0426 19.6375 55.0775 18.9597 54.8397C18.2247 54.5818 17.962 54.0894 18.1821 53.3477C18.4984 52.2822 19.3039 51.6749 20.2358 51.1764C21.0564 50.7373 21.9513 50.67 22.8549 50.6499C23.3087 50.6398 23.7637 50.6482 24.2172 50.6697C24.4195 50.6678 24.6158 50.7373 24.7709 50.8656C24.9259 50.9939 25.0295 51.1727 25.063 51.3697C25.1471 51.7209 25.2054 52.0782 25.2791 52.453ZM19.6674 52.5429C19.8348 52.5698 20.0037 52.5863 20.1732 52.5922C20.6273 52.5973 21.0813 52.5727 21.5321 52.5184C22.2013 52.4098 22.8605 52.2404 23.5228 52.0919C23.7151 52.0488 23.7655 51.9235 23.7299 51.7334C23.7167 51.5383 23.6276 51.3557 23.4813 51.224C23.3349 51.0922 23.1427 51.0214 22.9447 51.0264C22.216 50.9379 21.4771 51.0628 20.8198 51.3855C20.33 51.6382 19.8669 51.9283 19.6674 52.5429Z" fill="#474242"/>
<path d="M60.7019 52.7164C60.0029 53.2417 59.3827 53.7033 58.7675 54.1713C58.1479 54.6299 57.3891 54.8674 56.6151 54.8449C55.9864 54.8468 55.5858 54.5062 55.5724 53.8781C55.5805 53.4483 55.6167 53.0195 55.6808 52.5944C55.7487 51.9818 55.828 51.3704 55.9033 50.7517C56.1253 50.6923 56.3593 50.6916 56.5817 50.7499C56.804 50.8081 57.007 50.9232 57.17 51.0835C57.2228 51.1284 57.2121 51.2805 57.1889 51.3726C57.0291 52.0059 56.8149 52.6289 56.7028 53.2697C56.5849 53.9433 57.015 54.275 57.6817 54.0913C58.6328 53.8652 59.4609 53.2898 59.9976 52.4822C60.2175 52.1437 60.44 51.8059 60.6828 51.4835C60.7822 51.3485 60.9143 51.2401 61.067 51.1685C61.4755 50.9934 61.6875 51.1209 61.7815 51.5315C61.9339 52.1966 62.0981 52.8591 62.2638 53.5212C62.3033 53.7485 62.3993 53.9627 62.5432 54.1444C62.6871 54.3261 62.8744 54.4697 63.0883 54.5623C62.7305 55.0022 62.2448 55.1277 61.7435 55.2098C61.6882 55.2188 61.5845 55.1302 61.5539 55.0641C61.3906 54.7102 61.2264 54.355 61.0951 53.9889C60.9488 53.5809 60.8374 53.1608 60.7019 52.7164Z" fill="#474242"/>
<path d="M67.2277 55.1549C66.5157 55.1549 65.8574 54.9748 65.1819 54.8304C64.1132 54.5479 63.7904 53.594 64.4264 52.7025C64.6231 52.4154 64.8664 52.1625 65.1467 51.954C66.544 50.9151 68.2552 50.3718 70.0037 50.4117C70.3795 50.4456 70.7507 50.5178 71.1113 50.6274C71.1715 50.6394 71.2286 50.6632 71.2792 50.6974C71.3299 50.7316 71.3731 50.7755 71.4064 50.8265C71.4573 50.9752 71.466 51.1348 71.4317 51.288C71.4238 51.3297 71.2331 51.3669 71.1313 51.3569C70.2561 51.2702 69.3834 51.1135 68.5073 51.094C68.0687 51.0901 67.6342 51.178 67.2325 51.3518C66.8307 51.5256 66.4707 51.7815 66.1762 52.1025C66.0244 52.2564 65.8989 52.4337 65.8048 52.6274C65.513 53.2388 65.7091 53.9086 66.3388 54.1647C66.8574 54.3645 67.402 54.4909 67.9564 54.5402C68.9235 54.6166 69.8962 54.4916 70.8113 54.1731C71.2246 54.042 71.6452 53.9316 72.0671 53.83C72.1406 53.8123 72.2366 53.8858 72.3222 53.9171C72.2822 53.99 72.2308 54.0562 72.1701 54.1133C71.5651 54.5191 70.8462 54.7074 70.1532 54.8304C68.9915 55.0366 68.4001 55.1549 67.2277 55.1549Z" fill="#474242"/>
<path d="M72.2584 49.0501C72.5544 49.0368 72.8232 49.0135 73.0918 49.0152C73.4602 49.0175 73.8287 49.0365 74.1969 49.0526C74.3975 49.0613 74.4862 48.9546 74.5175 48.7755C74.5287 48.7112 74.5478 48.6482 74.5642 48.5849C74.6634 48.2012 74.823 48.0969 75.2248 48.1531C75.724 48.2228 75.8742 48.4052 75.9741 49.0864H78C77.979 49.2261 77.9102 49.3544 77.805 49.4501C77.6998 49.5458 77.5646 49.6029 77.4219 49.6121C76.998 49.6545 76.5733 49.6931 76.148 49.717C75.7589 49.7388 75.7498 49.7288 75.7336 50.1262C75.7078 50.7615 75.687 51.3972 75.6779 52.0329C75.6648 52.9405 75.6564 53.8483 75.6638 54.7558C75.6656 54.9716 75.5737 55.0365 75.3869 55.046C75.3112 55.0499 75.2357 55.0587 75.16 55.0616C74.5758 55.0839 74.3981 54.9239 74.416 54.3492C74.4555 53.0783 74.5069 51.8078 74.5535 50.5371C74.5538 50.5277 74.5539 50.5184 74.5544 50.509C74.5901 49.7368 74.5476 49.6916 73.7865 49.6916C73.5021 49.6916 73.2176 49.6941 72.9332 49.691C72.4826 49.6861 72.3481 49.5705 72.2584 49.0501Z" fill="#474242"/>
</svg>
